<svg width="862" height="794" viewBox="0 0 862 794" fill="none" xmlns="http://www.w3.org/2000/svg">
<g clip-path="url(#clip0_2_95)">
<rect width="862" height="794" fill="white"/>
<g clip-path="url(#clip1_2_95)">
<path d="M1160 -232H-297V1164H1160V-232Z" fill="white"/>
<path d="M941.802 5.81702H-75.9944V904.125H941.802V5.81702Z" fill="#2563EB"/>
<mask id="mask0_2_95" style="mask-type:luminance" maskUnits="userSpaceOnUse" x="127" y="-61" width="612" height="558">
<path d="M127.564 -60.0587H738.244V496.892H127.564V-60.0587Z" fill="white"/>
</mask>
<g mask="url(#mask0_2_95)">
<path d="M668.995 211.326C663.515 211.326 658.12 210.36 652.964 208.469L652.313 208.244C651.74 208.055 651.13 207.83 650.442 207.56C648.912 206.958 647.246 206.082 645.376 204.907L644.762 204.526C637.939 200.428 631.866 194.533 627.192 187.463C612.925 165.895 612.966 135.83 627.302 114.334C633.13 105.593 640.89 98.8446 649.747 94.8191L650.623 94.4007C653.291 93.1038 655.235 92.3968 656.757 92.1724L658.431 91.8543C661.894 91.047 665.446 90.6344 669.003 90.6344C690.399 90.6344 708.264 83.037 720.669 68.6672C732.149 55.3705 738.128 37.0575 737.977 15.7154V-60.0583H607.293V-10.1122C607.293 -0.387264 607.269 9.33806 607.293 19.0634C607.326 38.7257 597.626 65.567 579.848 72.3984C568.531 76.7481 554.485 70.2528 542.465 71.8441C532.585 73.1525 523.008 77.0367 514.602 83.1488C497.715 95.4262 486.305 116.308 484.111 139.154C483.268 147.971 483.743 154.537 484.091 159.341C484.48 164.693 484.594 166.302 482.969 171.636C479.769 182.051 472.93 191.729 463.721 198.877C454.513 206.021 443.925 209.955 433.902 209.955L432.924 209.942L431.946 209.955C421.919 209.955 411.323 206.021 402.122 198.877C392.914 191.733 386.075 182.051 382.874 171.636C381.245 166.302 381.36 164.687 381.753 159.341C382.097 154.549 382.571 147.977 381.732 139.154C379.543 116.308 368.128 95.432 351.242 83.1488C342.835 77.0367 333.258 73.1525 323.379 71.8441C311.358 70.2528 297.312 76.7481 285.992 72.3984C268.213 65.567 258.518 38.7257 258.554 19.0634C258.575 9.33806 258.554 -0.387264 258.554 -10.1122V-60.0583H127.846V15.7154C127.695 37.0575 133.686 55.3705 145.154 68.6672C157.555 83.0428 175.424 90.6344 196.82 90.6344C200.381 90.6344 203.929 91.047 207.392 91.8543L209.066 92.1724C210.588 92.4025 212.536 93.1099 215.196 94.4007L216.072 94.8191C224.933 98.8446 232.693 105.593 238.517 114.334C252.857 135.83 252.898 165.895 238.631 187.463C233.953 194.533 227.876 200.428 221.057 204.526L220.447 204.907C218.577 206.082 216.907 206.954 215.377 207.56C214.697 207.83 214.079 208.055 213.514 208.244L212.864 208.469C207.703 210.364 202.313 211.326 196.828 211.326C155.398 211.326 127.568 240.618 127.568 284.217C127.568 318.249 141.061 335.91 152.382 344.732C166.195 355.495 182.856 358.541 198.809 360.219L199.91 360.367C204.146 360.997 207.715 362 211.816 363.691L213.793 364.559L214.132 364.702C224.872 368.914 233.867 377.532 239.47 388.962C242.638 395.418 244.828 403.876 245.642 412.76C245.961 416.256 246.17 419.637 246.379 422.986C246.538 425.528 246.718 428.378 246.96 431.251V496.892H376.719V419.604C376.719 399.741 370.142 380.471 357.925 366.425C357.487 365.922 357.045 365.431 356.591 364.935C355.617 363.891 354.725 363.003 354.008 362.303L353.562 361.865C339.504 347.848 321.214 347.479 307.855 347.201H307.712C305.477 347.156 303.361 347.107 301.491 347L299.486 346.648L295.192 345.543L291.145 344.114L286.782 342.116C282.21 339.725 277.942 336.622 274.16 332.921L273.313 332.078C261.219 319.653 255.219 304.334 254.973 285.257C255.01 271.62 258.8 258.704 265.942 247.888C272.908 237.347 282.767 229.499 293.719 225.79C304.802 222.04 325.474 221.946 335.44 225.605C353.603 232.274 366.495 251.434 367.51 273.295C367.592 275.104 367.531 276.995 367.465 279.214C367.252 285.625 366.97 294.407 370.195 305.513C379.289 336.393 404.459 357.227 432.903 357.37C461.344 357.222 486.514 336.393 495.612 305.513C498.833 294.419 498.546 285.638 498.341 279.214C498.272 276.995 498.211 275.092 498.292 273.295C499.307 251.434 512.191 232.274 530.363 225.605C540.337 221.946 561.001 222.04 572.088 225.79C583.032 229.499 592.903 237.355 599.857 247.888C607.003 258.704 610.792 271.62 610.829 285.257C610.58 304.334 604.58 319.645 592.494 332.078L591.643 332.921C587.857 336.614 583.596 339.725 579.021 342.116L574.658 344.114L570.61 345.543L566.317 346.648L564.312 347C562.454 347.107 560.325 347.156 558.095 347.201H557.952C544.597 347.479 526.303 347.848 512.236 361.865L511.794 362.303C511.078 363.003 510.182 363.891 509.216 364.935C508.757 365.431 508.319 365.926 507.873 366.425C495.661 380.471 489.084 399.741 489.084 419.604V496.892H618.843V431.251C619.084 428.39 619.264 425.528 619.424 422.986C619.633 419.649 619.845 416.26 620.161 412.76C620.975 403.876 623.169 395.418 626.328 388.962C631.927 377.532 640.931 368.914 651.67 364.702L652.01 364.559L653.987 363.691C658.083 362.008 661.661 361.005 665.888 360.367L666.989 360.219C682.947 358.541 699.608 355.495 713.421 344.732C724.741 335.91 738.243 318.249 738.243 284.217C738.243 240.618 710.405 211.326 668.974 211.326H668.995Z" fill="white"/>
</g>
<path d="M875.944 395.082H31.772V598.698H875.944V395.082Z" fill="#2563EB"/>
<mask id="mask1_2_95" style="mask-type:luminance" maskUnits="userSpaceOnUse" x="115" y="395" width="630" height="593">
<path d="M115.589 987.965H744.227V395.082H115.589V987.965Z" fill="white"/>
</mask>
<g mask="url(#mask1_2_95)">
<path d="M673.624 597.265C668.033 597.265 662.537 598.292 657.278 600.307L656.611 600.544C656.029 600.745 655.407 600.986 654.707 601.273C653.144 601.911 651.446 602.849 649.543 604.098L648.916 604.503C641.959 608.867 635.767 615.139 631.003 622.667C616.453 645.625 616.494 677.631 631.113 700.512C637.056 709.817 644.967 717.002 653.995 721.288L654.888 721.734C657.609 723.114 659.594 723.867 661.145 724.104L662.852 724.444C666.384 725.304 670.002 725.742 673.632 725.742C695.446 725.742 713.663 733.831 726.309 749.126C738.014 763.282 744.112 782.777 743.957 805.494V886.155H610.711V832.988C610.711 822.635 610.686 812.282 610.711 801.932C610.744 781.001 600.852 752.426 582.725 745.155C571.188 740.525 556.872 747.439 544.614 745.744C534.538 744.353 524.773 740.218 516.202 733.709C498.984 720.641 487.349 698.411 485.114 674.094C484.251 664.707 484.738 657.715 485.094 652.601C485.491 646.907 485.605 645.192 483.948 639.513C480.686 628.427 473.712 618.127 464.323 610.517C454.935 602.91 444.138 598.726 433.919 598.726L432.92 598.739L431.926 598.726C421.702 598.726 410.897 602.91 401.521 610.517C392.128 618.119 385.158 628.427 381.892 639.513C380.231 645.192 380.35 646.911 380.751 652.601C381.098 657.702 381.585 664.699 380.73 674.094C378.496 698.411 366.86 720.637 349.638 733.709C341.072 740.218 331.303 744.353 321.231 745.744C308.973 747.439 294.653 740.525 283.111 745.155C264.985 752.426 255.101 781.001 255.133 801.932C255.158 812.282 255.133 822.635 255.133 832.988V886.155H121.863V805.494C121.707 782.777 127.818 763.282 139.511 749.126C152.153 733.823 170.378 725.742 192.188 725.742C195.818 725.742 199.44 725.304 202.968 724.444L204.675 724.104C206.226 723.859 208.211 723.106 210.928 721.734L211.82 721.288C220.857 717.002 228.768 709.817 234.707 700.512C249.33 677.631 249.371 645.625 234.821 622.667C230.053 615.139 223.853 608.867 216.904 604.503L216.281 604.098C214.374 602.849 212.672 601.92 211.112 601.273C210.417 600.986 209.79 600.745 209.209 600.544L208.546 600.307C203.287 598.288 197.787 597.265 192.2 597.265C149.955 597.265 121.576 566.082 121.576 519.67C121.576 483.444 135.34 464.645 146.882 455.254C160.965 443.795 177.953 440.553 194.218 438.764L195.339 438.608C199.657 437.937 203.299 436.868 207.482 435.067L209.496 434.146L209.84 433.994C220.792 429.508 229.963 420.337 235.677 408.17C238.906 401.293 241.14 392.29 241.971 382.834C242.295 379.112 242.507 375.514 242.72 371.948C242.884 369.242 243.068 366.208 243.314 363.15V293.277H375.614V375.551C375.614 396.695 368.91 417.205 356.456 432.156C356.006 432.697 355.556 433.217 355.093 433.745C354.099 434.854 353.19 435.8 352.462 436.549L352.008 437.012C337.671 451.934 319.02 452.327 305.4 452.621H305.257C302.977 452.675 300.82 452.724 298.913 452.834L296.867 453.211L292.492 454.386L288.366 455.909L283.917 458.037C279.252 460.58 274.901 463.883 271.05 467.826L270.182 468.722C257.851 481.95 251.737 498.255 251.487 518.565C251.52 533.078 255.387 546.833 262.664 558.345C269.769 569.562 279.821 577.921 290.985 581.868C302.29 585.855 323.367 585.958 333.529 582.06C352.048 574.966 365.194 554.566 366.226 531.297C366.312 529.369 366.246 527.354 366.181 524.996C365.964 518.172 365.677 508.822 368.964 497.003C378.238 464.129 403.899 441.949 432.9 441.801C461.901 441.957 487.562 464.129 496.84 497.003C500.122 508.809 499.832 518.16 499.623 524.996C499.553 527.354 499.492 529.381 499.574 531.297C500.609 554.566 513.743 574.966 532.274 582.06C542.441 585.958 563.514 585.855 574.814 581.868C585.975 577.921 596.039 569.558 603.131 558.345C610.416 546.833 614.28 533.078 614.317 518.565C614.059 498.255 607.944 481.954 595.621 468.722L594.754 467.826C590.894 463.892 586.548 460.58 581.886 458.037L577.437 455.909L573.312 454.386L568.933 453.211L566.886 452.834C564.992 452.724 562.822 452.675 560.547 452.621H560.399C546.787 452.327 528.133 451.934 513.792 437.012L513.342 436.549C512.609 435.8 511.696 434.854 510.71 433.745C510.244 433.217 509.793 432.688 509.339 432.156C496.889 417.205 490.185 396.695 490.185 375.551V293.277H622.49V363.15C622.735 366.196 622.92 369.242 623.079 371.948C623.292 375.497 623.509 379.108 623.832 382.834C624.663 392.29 626.898 401.293 630.119 408.17C635.828 420.337 645.008 429.508 655.96 433.994L656.304 434.146L658.321 435.067C662.5 436.86 666.143 437.929 670.456 438.608L671.582 438.764C687.846 440.553 704.835 443.795 718.922 455.254C730.463 464.645 744.227 483.444 744.227 519.67C744.227 566.082 715.844 597.265 673.599 597.265H673.624Z" fill="white"/>
</g>
</g>
</g>
<defs>
<clipPath id="clip0_2_95">
<rect width="862" height="794" fill="white"/>
</clipPath>
<clipPath id="clip1_2_95">
<rect width="1457" height="1396" fill="white" transform="translate(-297 -232)"/>
</clipPath>
</defs>
</svg>
